<?xml version="1.0" encoding="utf-8"?>
<!-- Generator: Adobe Illustrator 23.0.3, SVG Export Plug-In . SVG Version: 6.00 Build 0)  -->
<svg version="1.1" id="Capa_1" xmlns="http://www.w3.org/2000/svg" xmlns:xlink="http://www.w3.org/1999/xlink" x="0px" y="0px"
     viewBox="0 0 1013.7 373.4" style="enable-background:new 0 0 1013.7 373.4;" xml:space="preserve">
<style type="text/css">
	.st0{fill:#FFFFFF;}
	.st1{enable-background:new    ;}
</style>
    <title>PolisPay Blank</title>
    <path class="st0" d="M140.9,0C63.1,0,0,63.1,0,140.9c0,0,0,0,0,0v232.5l50.4-56.1V140.6c0-49.3,40-89.2,89.3-89.1s89.2,40,89.1,89.3
	s-40,89.2-89.3,89.1c-10.5,0-20.8-1.9-30.6-5.4v53.8c75.8,17.7,151.6-29.5,169.2-105.2C295.8,97.1,248.7,21.3,172.9,3.7
	C162.4,1.2,151.7,0,140.9,0L140.9,0z"/>
    <path class="st0" d="M165.6,144.9c0-13.6-11.1-24.6-24.7-24.6s-24.6,11.1-24.6,24.7c0,13.6,11.1,24.6,24.6,24.6
	C154.5,169.6,165.6,158.6,165.6,144.9C165.6,145,165.6,144.9,165.6,144.9z"/>
    <g class="st1">
	<path class="st0" d="M416.8,166.9c0,8.1-1.4,15.6-4.2,22.5c-2.8,6.9-6.8,12.9-11.9,17.8c-5.1,5-11.2,8.9-18.3,11.7
		c-7.1,2.8-14.8,4.2-23.1,4.2c-8.5,0-16.2-1.4-23.2-4.2c-7-2.8-13-6.7-18.1-11.7c-5.1-5-9.1-10.9-11.9-17.8
		c-2.8-6.9-4.2-14.4-4.2-22.5c0-8.1,1.4-15.6,4.2-22.5s6.8-12.9,11.9-17.8c5.1-5,11.2-8.9,18.1-11.7c7-2.8,14.7-4.2,23.2-4.2
		c8.4,0,16.1,1.4,23.1,4.2c7.1,2.8,13.1,6.7,18.3,11.7c5.1,5,9.1,10.9,11.9,17.8C415.4,151.3,416.8,158.8,416.8,166.9z M359.3,199.1
		c9.5,0,17.1-3,22.8-9c5.7-6,8.5-13.7,8.5-23.2c0-9.5-2.8-17.2-8.5-23.2c-5.7-6-13.3-9-22.8-9s-17.1,3-22.9,9
		c-5.8,6-8.6,13.7-8.6,23.2c0,9.5,2.9,17.3,8.6,23.2C342.2,196.1,349.8,199.1,359.3,199.1z"/>
        <path class="st0" d="M437.3,220.2V66.8H463v153.4H437.3z"/>
        <path class="st0" d="M504.3,100.8c-4.8,0-8.8-1.7-12.1-5c-3.3-3.3-5-7.3-5-12.1c0-4.9,1.7-9,5-12.3c3.3-3.3,7.3-5,12.1-5
		c4.9,0,9,1.7,12.2,5c3.2,3.3,4.9,7.4,4.9,12.3c0,4.8-1.6,8.8-4.9,12.1C513.2,99.1,509.2,100.8,504.3,100.8z M491.5,220.2V113.5
		h25.7v106.7H491.5z"/>
        <path class="st0" d="M599.8,144.2c-0.3-3.3-1.9-6-4.8-8c-2.9-2-6.8-3-11.9-3c-5.8,0-10,1.2-12.9,3.5c-2.8,2.3-4.2,5.3-4.2,8.9
		c0,3.2,1.5,5.4,4.5,6.7s6.8,2.3,11.5,3c4.6,0.7,9.5,1.4,14.8,2.2c5.3,0.7,10.2,2.2,14.8,4.3c4.6,2.2,8.4,5.3,11.5,9.3
		c3,4,4.5,9.7,4.5,17.1c0,5-1,9.7-3.1,14c-2.1,4.3-5.1,8-9,11.1c-3.9,3.1-8.6,5.5-14.2,7.2c-5.5,1.7-11.7,2.6-18.5,2.6
		c-6.8,0-12.9-0.9-18.4-2.6c-5.5-1.7-10.2-4.1-14-7.1c-3.9-3-6.9-6.6-9.1-10.8c-2.2-4.2-3.3-8.8-3.5-13.8h25.9
		c0.1,3.6,1.8,6.5,4.9,8.6c3.1,2.2,7.7,3.2,13.7,3.2c6.9,0,11.8-1.2,14.8-3.5c3-2.3,4.4-5.3,4.4-9.1c0-3.2-1.5-5.4-4.5-6.6
		c-3-1.2-6.8-2.2-11.5-2.8c-4.6-0.6-9.5-1.3-14.8-2.1c-5.3-0.7-10.2-2.1-14.8-4.2c-4.6-2.1-8.4-5.2-11.5-9.4c-3-4.2-4.5-10-4.5-17.5
		c0-5,1-9.7,3-13.9c2-4.2,4.9-7.9,8.5-11c3.7-3.1,8.1-5.5,13.4-7.2c5.3-1.7,11.1-2.6,17.6-2.6c6.5,0,12.3,0.9,17.5,2.6
		c5.2,1.7,9.6,4.1,13.3,7.1S620,127,622,131c2,4,3.1,8.4,3.2,13.2H599.8z"/>
</g>
    <path class="st0" d="M651,219.4V78.1h57.7c9.2,0,17.2,1.2,23.9,3.6c6.2,2.1,11.8,5.5,16.5,10c4.3,4.3,7.6,9.5,9.6,15.3
	c4.2,12.4,4.2,25.8,0,38.3c-2,5.7-5.3,10.9-9.6,15.2c-4.7,4.5-10.3,7.9-16.5,10c-6.7,2.4-14.7,3.6-23.9,3.6h-30v45.4H651z
	 M709.1,148.6c9.2,0,15.6-2.1,19.2-6.4c3.6-4.2,5.4-9.6,5.4-16.1c0-6.4-1.8-11.6-5.4-15.9c-3.6-4.2-10-6.4-19.2-6.4h-30.5v44.7
	L709.1,148.6z"/>
    <path class="st0" d="M887.1,219.4h-23.5v-19.9h-0.4c-2.9,6.9-7.9,12.7-14.3,16.5c-6.6,4.1-14.5,6.2-23.5,6.2c-6.5,0-12.9-1.2-19-3.4
	c-6.3-2.3-12.1-5.9-17-10.5c-5.2-5-9.3-10.9-12.1-17.5c-3.1-7-4.6-15.2-4.6-24.7c-0.1-7.7,1.4-15.3,4.2-22.4
	c2.7-6.7,6.7-12.8,11.9-17.9c5.2-5,11.4-9,18.2-11.7c7.4-2.9,15.3-4.3,23.2-4.2c7.9-0.1,15.7,1.3,23.1,4.1c6.7,2.5,12.9,6.5,18,11.6
	c5.1,5.1,9,11.2,11.7,17.9c2.9,7.5,4.3,15.4,4.2,23.4L887.1,219.4z M830.1,198.2c9.5,0,17.1-3,22.8-9s8.5-13.7,8.5-23.2
	c0-9.5-2.8-17.2-8.5-23.2c-5.7-6-13.3-9-22.8-9c-9.5,0-17.2,3-22.9,9c-5.7,6-8.6,13.7-8.7,23.2c0,9.5,2.9,17.2,8.7,23.2
	C813,195.2,820.6,198.2,830.1,198.2L830.1,198.2z"/>
    <path class="st0" d="M988,203.9h-0.4c-3.1,5.2-7.5,9.6-12.8,12.5c-5.7,3.1-12.1,4.7-18.6,4.5c-6.1,0-12.2-1-17.9-3.1
	c-5.7-2.1-11-5.4-15.3-9.6c-4.7-4.7-8.4-10.4-10.7-16.7c-2.7-6.8-4-15-4-24.5v-54.2H934v54.2c0,10.2,2.5,17.8,7.3,22.7
	c4.9,4.9,11.5,7.4,19.7,7.4c7.9,0,14.4-2.5,19.4-7.6c5-5,7.6-12.5,7.6-22.5v-54.2h25.7v103.1c0,9.3-1.4,17.3-4.1,23.9
	c-2.5,6.2-6.4,11.7-11.3,16.1c-4.9,4.2-10.7,7.4-17,9.2c-6.7,2-13.7,3-20.7,2.9c-5.9,0-11.9-0.7-17.6-2.2
	c-5.4-1.4-10.5-3.6-15.1-6.7c-4.6-3-8.5-6.9-11.7-11.4c-3.4-5-5.8-10.5-7-16.4h25.7c4.2,9.7,12.8,14.5,25.7,14.5
	c8.8,0,15.5-2.3,20.3-6.8c4.8-4.5,7.1-12,7.1-22.4L988,203.9z"/>
</svg>
