<?xml version="1.0" standalone="no"?><!-- Generator: Gravit.io --><svg xmlns="http://www.w3.org/2000/svg" xmlns:xlink="http://www.w3.org/1999/xlink" style="isolation:isolate" viewBox="0 0 228 64" width="228px" height="64px"><defs><clipPath id="_clipPath_SMEa0zahHgemf9eF8Y4VzslLKofKAXQf"><rect width="228" height="64"/></clipPath></defs><g clip-path="url(#_clipPath_SMEa0zahHgemf9eF8Y4VzslLKofKAXQf)"><path d=" M 9.3 31.3 L 6.1 49.7 L 0 49.7 L 8.2 2.6 L 24 2.6 C 28.9 2.6 32.6 3.9 35.3 6.5 C 37.9 9.1 39.1 12.5 38.7 16.8 C 38.3 21.3 36.5 24.9 33.3 27.5 C 30.1 30.1 25.8 31.4 20.6 31.4 L 9.3 31.3 L 9.3 31.3 Z  M 10.2 26.2 L 20.7 26.2 C 24 26.2 26.7 25.4 28.9 23.7 C 31 22 32.3 19.7 32.6 16.8 C 32.9 14.1 32.4 12 30.9 10.3 C 29.4 8.6 27.3 7.8 24.6 7.7 L 13.4 7.7 L 10.2 26.2 L 10.2 26.2 Z " fill="rgb(255,255,255)"/><path d=" M 56.2 14.1 C 59.1 14.1 61.7 14.9 63.8 16.5 C 65.9 18.1 67.5 20.2 68.5 22.9 C 69.5 25.6 69.9 28.6 69.5 31.9 L 69.4 32.6 C 69 36 68 39 66.4 41.8 C 64.8 44.6 62.7 46.7 60.1 48.2 C 57.5 49.7 54.7 50.5 51.6 50.4 C 48.7 50.4 46.2 49.6 44 48 C 41.9 46.4 40.3 44.3 39.4 41.7 C 38.4 39 38.1 36.1 38.4 32.9 C 38.7 29.3 39.7 26 41.4 23.1 C 43 20.2 45.2 18 47.8 16.4 C 50.4 14.8 53.1 14 56.2 14.1 Z  M 44.2 32.8 C 44 34.2 44 35.6 44.2 37 C 44.4 39.5 45.2 41.6 46.5 43.1 C 47.8 44.6 49.6 45.4 51.8 45.5 C 53.8 45.6 55.6 45.1 57.2 44.1 C 58.8 43.1 60.2 41.5 61.4 39.5 C 62.5 37.4 63.3 35.1 63.6 32.6 C 63.8 30.6 63.8 28.9 63.7 27.6 C 63.4 25 62.6 22.9 61.3 21.4 C 60 19.9 58.2 19.1 56 19 C 53 18.9 50.4 20.1 48.3 22.6 C 46.2 25 44.9 28.2 44.4 32.2 L 44.2 32.8 L 44.2 32.8 Z " fill="rgb(255,255,255)"/><path d=" M 77.4 49.7 L 71.5 49.7 L 80.2 0 L 86.1 0 L 77.4 49.7 L 77.4 49.7 Z " fill="rgb(255,255,255)"/><path d=" M 90.7 49.7 L 84.8 49.7 L 90.9 14.7 L 96.8 14.7 L 90.7 49.7 L 90.7 49.7 Z  M 95.6 1.9 C 96.6 1.9 97.4 2.2 98.1 2.8 C 98.8 3.4 99.1 4.3 99.1 5.3 C 99.1 6.3 98.7 7.1 98.1 7.8 C 97.5 8.5 96.6 8.8 95.6 8.8 C 94.6 8.8 93.7 8.6 93.1 7.9 C 92.4 7.3 92.1 6.5 92.2 5.4 C 92.2 4.4 92.5 3.5 93.2 2.9 C 93.7 2.3 94.5 2 95.6 1.9 Z " fill="rgb(255,255,255)"/><path d=" M 118.9 40.3 C 119.2 37.9 117.9 36.2 114.9 35.2 L 108.8 33.4 C 103.6 31.6 101.1 28.7 101.3 24.6 C 101.5 21.5 102.9 19 105.5 17 C 108.1 15 111.3 14.1 115 14.1 C 118.6 14.1 121.4 15.2 123.7 17.2 C 125.9 19.2 127 21.8 126.9 25.1 L 121 25.1 C 121 23.4 120.5 21.9 119.3 20.8 C 118.1 19.7 116.6 19.1 114.7 19.1 C 112.7 19.1 110.9 19.6 109.4 20.6 C 108 21.6 107.2 22.8 107 24.4 C 106.7 26.4 108 27.9 110.7 28.8 L 113.7 29.6 C 117.7 30.6 120.6 32 122.3 33.6 C 124 35.3 124.8 37.3 124.6 39.8 C 124.5 42 123.8 43.9 122.5 45.5 C 121.2 47.1 119.5 48.4 117.3 49.2 C 115.1 50 112.8 50.4 110.4 50.4 C 106.7 50.4 103.6 49.3 101.2 47.1 C 98.8 45 97.6 42.2 97.7 38.9 L 103.6 38.9 C 103.6 40.9 104.2 42.4 105.5 43.6 C 106.8 44.8 108.5 45.4 110.7 45.4 C 112.8 45.4 114.7 45 116.3 44.1 C 117.9 43.2 118.7 41.9 118.9 40.3 Z " fill="rgb(255,255,255)"/><g><path d=" M 138.5 30.5 L 135.1 49.7 L 131.1 49.7 L 139.3 2.5 L 154.7 2.5 C 159.1 2.6 162.5 3.9 164.9 6.4 C 167.3 8.9 168.3 12.2 168 16.3 C 167.6 20.7 165.8 24.2 162.6 26.7 C 159.5 29.2 155.4 30.5 150.3 30.5 L 138.5 30.5 L 138.5 30.5 Z  M 139 27.2 L 150.5 27.2 C 154.3 27.2 157.3 26.2 159.8 24.3 C 162.2 22.4 163.6 19.8 164.1 16.4 C 164.4 13.2 163.8 10.7 162 8.8 C 160.3 7 157.8 6 154.6 5.9 L 142.7 5.9 L 139 27.2 L 139 27.2 Z " fill="rgb(255,255,255)"/><path d=" M 188.6 49.7 C 188.5 48.9 188.5 48.1 188.5 47.2 L 188.8 44.8 C 187.2 46.5 185.3 47.9 183.2 48.9 C 181.1 49.9 178.8 50.4 176.4 50.3 C 173.4 50.3 171 49.3 169.2 47.5 C 167.3 45.7 166.5 43.4 166.7 40.6 C 166.9 38.3 167.7 36.3 169.1 34.6 C 170.5 32.9 172.5 31.6 175.2 30.6 C 177.8 29.7 180.8 29.2 184 29.2 L 191.2 29.2 L 191.8 25.2 C 192.1 22.8 191.5 20.9 190.2 19.4 C 188.9 18 187 17.2 184.4 17.1 C 181.8 17.1 179.6 17.7 177.7 19 C 175.8 20.3 174.6 22 174.1 24.2 L 170.3 24.2 C 170.7 21.1 172.3 18.6 175 16.7 C 177.7 14.8 181 13.8 184.7 13.9 C 188.3 14 191.1 15.1 193.1 17.2 C 195.1 19.3 195.9 22 195.5 25.4 L 192.6 43 L 192.3 45.8 C 192.2 47 192.3 48.1 192.6 49.3 L 192.5 49.7 L 188.6 49.7 L 188.6 49.7 Z  M 177.1 47 C 179.5 47.1 181.8 46.5 183.9 45.3 C 186.1 44.1 187.9 42.3 189.3 40.1 L 190.6 32.3 L 184.4 32.3 C 180.5 32.3 177.2 33 174.7 34.4 C 172.2 35.8 170.8 37.8 170.6 40.4 C 170.4 42.3 170.9 43.9 172.1 45.1 C 173.4 46.3 175 47 177.1 47 Z " fill="rgb(255,255,255)"/><path d=" M 208.6 44 L 223.7 14.7 L 228 14.7 L 206.5 55.4 C 204.9 58.6 203.2 60.8 201.5 62.1 C 199.7 63.4 197.8 64.1 195.6 64 C 194.8 64 193.7 63.8 192.5 63.5 L 192.9 60.3 L 194.9 60.5 C 198.5 60.7 201.4 58.5 203.5 54.1 L 206 49.2 L 199.2 14.7 L 203.3 14.7 L 208.6 44 L 208.6 44 Z " fill="rgb(255,255,255)"/></g></g></svg>